<?xml version="1.0" encoding="utf-8"?>
<svg width="286.437px" version="1.1" xmlns="http://www.w3.org/2000/svg" xmlns:xlink="http://www.w3.org/1999/xlink" x="0px" y="0px" id="Layer_1" height="289.406px" viewBox="0 0 286.437 289.406" enable-background="new 0 0 286.437 289.406" xml:space="preserve">
    <g>
        <g>
            <polygon fill="#39B54A"
                     points="71.61,248.062 0.001,206.72 71.61,165.375 &#x9;&#x9;"/>
            <polygon fill="#8DC63F"
                     points="71.61,82.688 143.219,124.031 71.61,165.375 &#x9;&#x9;"/>
            <polygon fill="#39B54A"
                     points="143.219,124.031 71.61,82.688 143.219,41.344 &#x9;&#x9;"/>
            <polygon fill="#8DC63F"
                     points="71.61,165.375 143.219,206.719 71.61,248.062 &#x9;&#x9;"/>
            <polygon fill="#39B54A"
                     points="143.219,206.719 71.61,165.375 143.219,124.032 &#x9;&#x9;"/>
            <polygon fill="#8DC63F"
                     points="71.61,0 143.219,41.344 71.61,82.688 &#x9;&#x9;"/>
            <polygon fill="#39B54A"
                     points="71.61,82.687 0.001,41.344 71.61,0 &#x9;&#x9;"/>
            <polygon fill="#8DC63F"
                     points="0,124.031 71.61,165.375 0,206.719 &#x9;&#x9;"/>
        </g>
        <g>
            <polygon fill="#8DC63F"
                     points="214.828,0 286.437,41.344 214.828,82.688 &#x9;&#x9;"/>
            <polygon fill="#39B54A"
                     points="214.829,248.062 143.22,206.719 214.829,165.375 &#x9;&#x9;"/>
            <polygon fill="#8DC63F"
                     points="143.22,41.344 214.829,82.687 143.22,124.031 &#x9;&#x9;"/>
            <polygon fill="#39B54A"
                     points="214.829,82.687 143.22,41.344 214.829,0 &#x9;&#x9;"/>
            <polygon fill="#8DC63F"
                     points="143.22,124.031 214.829,165.375 143.22,206.718 &#x9;&#x9;"/>
            <polygon fill="#39B54A"
                     points="214.829,165.375 143.22,124.032 214.829,82.688 &#x9;&#x9;"/>
            <polygon fill="#8DC63F"
                     points="71.61,165.375 143.22,206.718 71.61,248.062 &#x9;&#x9;"/>
            <polygon fill="#39B54A"
                     points="286.437,124.031 214.828,82.688 286.437,41.344 &#x9;&#x9;"/>
            <polygon fill="#39B54A"
                     points="143.22,289.406 71.61,248.062 143.22,206.718 &#x9;&#x9;"/>
            <polygon fill="#8DC63F"
                     points="143.22,206.718 214.829,248.061 143.22,289.406 &#x9;&#x9;"/>
        </g>
    </g>
</svg>
